<svg width="1068" height="881" xmlns="http://www.w3.org/2000/svg" xmlns:xlink="http://www.w3.org/1999/xlink" xml:space="preserve" overflow="hidden"><defs><clipPath id="clip0"><rect x="328" y="708" width="1068" height="881"/></clipPath><clipPath id="clip1"><path d="M422.033 708.213 1394.9 826.758 1302.03 1588.92 329.163 1470.38Z" fill-rule="nonzero" clip-rule="nonzero"/></clipPath><clipPath id="clip2"><path d="M422.033 708.213 1394.9 826.758 1302.03 1588.92 329.163 1470.38Z" fill-rule="evenodd" clip-rule="evenodd"/></clipPath><clipPath id="clip3"><path d="M422.033 708.213 1394.9 826.758 1302.03 1588.92 329.163 1470.38Z" fill-rule="evenodd" clip-rule="evenodd"/></clipPath></defs><g clip-path="url(#clip0)" transform="translate(-328 -708)"><g clip-path="url(#clip1)"><g clip-path="url(#clip2)"><g clip-path="url(#clip3)"><path d="M250.891 148.123C340.473 148.123 441.458 174.077 535.287 221.214 754.22 331.218 879.298 526.321 814.072 656.144 779.257 725.434 695.076 765.178 583.132 765.178 493.55 765.178 392.538 739.224 298.71 692.087 79.7765 582.083-45.2757 386.954 19.9245 257.157 54.7399 187.867 138.895 148.149 250.891 148.123L250.891 148.123M250.891 145.501C142.172 145.501 54.2418 183.043 17.6174 255.977-48.3693 387.295 76.9714 583.604 297.556 694.42 395.658 743.707 496.067 767.8 583.158 767.8 691.877 767.8 779.807 730.258 816.431 657.324 882.418 526.006 757.077 329.698 536.493 218.881 438.391 169.594 337.982 145.501 250.891 145.501Z" fill="#006837" fill-rule="nonzero" fill-opacity="1" transform="matrix(0.992666 0.120957 -0.120956 0.992658 422.312 708.247)"/><path d="M262.688 125.839C352.27 125.839 453.255 151.793 547.084 198.93 766.017 308.934 891.096 504.037 825.869 633.86 791.054 703.15 706.873 742.894 594.929 742.894 505.348 742.894 404.336 716.94 310.507 669.803 91.5739 559.799-33.4784 364.67 31.7219 234.873 66.5372 165.583 150.692 125.865 262.688 125.839L262.688 125.839M262.688 123.217C153.969 123.217 66.0391 160.759 29.4148 233.693-36.5719 365.011 88.7688 561.32 309.354 672.136 407.455 721.423 507.864 745.516 594.955 745.516 703.675 745.516 791.604 707.974 828.229 635.04 894.216 503.722 768.875 307.414 548.29 196.597 450.188 147.31 349.779 123.217 262.688 123.217Z" fill="#006837" fill-rule="nonzero" fill-opacity="1" transform="matrix(0.992666 0.120957 -0.120956 0.992658 422.312 708.247)"/><path d="M273.175 102.244C362.756 102.244 463.742 128.198 557.571 175.335 776.504 285.339 901.582 480.442 836.356 610.266 801.54 679.556 717.36 719.3 605.416 719.3 515.834 719.3 414.822 693.345 320.994 646.208 102.06 536.204-22.9918 341.076 42.2084 211.278 77.0238 141.988 161.178 102.27 273.175 102.244L273.175 102.244M273.175 99.6224C164.456 99.6224 76.5257 137.164 39.9014 210.098-26.0853 341.416 99.2553 537.725 319.84 648.542 417.942 697.828 518.351 721.921 605.442 721.921 714.161 721.921 802.091 684.379 838.715 611.445 904.702 480.127 779.361 283.819 558.777 173.002 460.675 123.715 360.266 99.6224 273.175 99.6224Z" fill="#006837" fill-rule="nonzero" fill-opacity="1" transform="matrix(0.992666 0.120957 -0.120956 0.992658 422.312 708.247)"/><path d="M286.283 81.2709C375.865 81.2709 476.85 107.225 570.679 154.362 789.612 264.366 914.69 459.469 849.464 589.292 814.649 658.582 730.468 698.326 618.524 698.326 528.942 698.326 427.93 672.372 334.102 625.235 115.169 515.231-9.88359 320.102 55.3166 190.305 90.132 121.015 174.287 81.2971 286.283 81.2709L286.283 81.2709M286.283 78.6492C177.564 78.6492 89.6339 116.191 53.0096 189.125-12.9771 320.443 112.364 516.752 332.948 627.568 431.05 676.855 531.459 700.948 618.55 700.948 727.269 700.948 815.199 663.406 851.824 590.472 917.81 459.154 792.47 262.846 571.885 152.029 473.783 102.742 373.374 78.6492 286.283 78.6492Z" fill="#006837" fill-rule="nonzero" fill-opacity="1" transform="matrix(0.992666 0.120957 -0.120956 0.992658 422.312 708.247)"/><path d="M307.256 68.1627C396.838 68.1627 497.823 94.1169 591.652 141.254 810.585 251.258 935.664 446.361 870.437 576.184 835.622 645.474 751.441 685.218 639.497 685.218 549.915 685.218 448.904 659.264 355.075 612.127 136.142 502.123 11.0895 306.994 76.2897 177.197 111.105 107.907 195.26 68.1889 307.256 68.1627L307.256 68.1627M307.256 65.541C198.537 65.541 110.607 103.083 73.9827 176.017 7.996 307.335 133.337 503.643 353.922 614.46 452.023 663.747 552.432 687.84 639.523 687.84 748.243 687.84 836.172 650.298 872.797 577.364 938.783 446.046 813.443 249.738 592.858 138.921 494.756 89.6339 394.347 65.541 307.256 65.541Z" fill="#006837" fill-rule="nonzero" fill-opacity="1" transform="matrix(0.992666 0.120957 -0.120956 0.992658 422.312 708.247)"/><path d="M333.473 52.4328C423.054 52.4328 524.04 78.3871 617.868 125.524 836.802 235.528 961.88 430.631 896.654 560.454 861.838 629.744 777.657 669.488 665.713 669.488 576.132 669.488 475.12 643.534 381.291 596.397 162.358 486.393 37.306 291.264 102.506 161.467 137.322 92.1769 221.476 52.459 333.473 52.4328L333.473 52.4328M333.473 49.8112C224.753 49.8112 136.823 87.3531 100.199 160.287 34.2124 291.605 159.553 487.914 380.138 598.73 478.24 648.017 578.649 672.11 665.74 672.11 774.459 672.11 862.389 634.568 899.013 561.634 965 430.316 839.659 234.008 619.074 123.191 520.972 73.9041 420.564 49.8112 333.473 49.8112Z" fill="#006837" fill-rule="nonzero" fill-opacity="1" transform="matrix(0.992666 0.120957 -0.120956 0.992658 422.312 708.247)"/><path d="M354.446 36.703C444.027 36.703 545.013 62.6572 638.841 109.794 857.775 219.798 982.853 414.901 917.627 544.725 882.811 614.015 798.63 653.759 686.686 653.759 597.105 653.759 496.093 627.804 402.265 580.667 183.331 470.663 58.2791 275.534 123.479 145.737 158.295 76.4471 242.476 36.703 354.446 36.703L354.446 36.703M354.446 34.0813C245.726 34.0813 157.797 71.6232 121.172 144.557 55.1855 275.875 180.526 472.184 401.111 583.001 499.213 632.287 599.622 656.38 686.713 656.38 795.432 656.38 883.362 618.838 919.986 545.904 985.973 414.586 860.632 218.278 640.047 107.461 541.946 58.1742 441.537 34.0813 354.446 34.0813Z" fill="#006837" fill-rule="nonzero" fill-opacity="1" transform="matrix(0.992666 0.120957 -0.120956 0.992658 422.312 708.247)"/><path d="M372.797 23.5948C462.379 23.5948 563.364 49.549 657.193 96.6861 876.126 206.69 1001.2 401.793 935.978 531.616 901.163 600.906 816.982 640.65 705.038 640.65 615.456 640.65 514.445 614.696 420.616 567.559 201.683 457.555 76.6306 262.426 141.831 132.629 176.646 63.3388 260.801 23.621 372.797 23.5948L372.797 23.5948M372.797 20.9731C264.078 20.9731 176.148 58.515 139.524 131.449 73.537 262.767 198.878 459.076 419.463 569.892 517.564 619.179 617.973 643.272 705.064 643.272 813.784 643.272 901.713 605.73 938.338 532.796 1004.32 401.478 878.984 205.17 658.399 94.3529 560.297 45.066 459.888 20.9731 372.797 20.9731Z" fill="#006837" fill-rule="nonzero" fill-opacity="1" transform="matrix(0.992666 0.120957 -0.120956 0.992658 422.312 708.247)"/><path d="M396.392 2.62164C485.974 2.62164 586.959 28.5759 680.788 75.713 899.721 185.717 1024.8 380.82 959.573 510.643 924.758 579.933 840.577 619.677 728.633 619.677 639.051 619.677 538.039 593.723 444.211 546.586 225.278 436.582 100.225 241.453 165.426 111.656 200.241 42.3657 284.422 2.62164 396.392 2.62164L396.392 2.62164M396.366 0C287.673 0 199.717 37.5419 163.092 110.476 97.1056 241.794 222.446 438.102 443.031 548.919 541.133 598.206 641.542 622.299 728.633 622.299 837.352 622.299 925.282 584.757 961.906 511.823 1027.89 380.505 902.552 184.197 681.967 73.3797 583.866 24.0929 483.457 0 396.366 0Z" fill="#006837" fill-rule="nonzero" fill-opacity="1" transform="matrix(0.992666 0.120957 -0.120956 0.992658 422.312 708.247)"/></g></g></g></g></svg>