<?xml version="1.0" encoding="utf-8"?>
<!-- Generator: $$$/GeneralStr/196=Adobe Illustrator 27.6.0, SVG Export Plug-In . SVG Version: 6.00 Build 0)  -->
<svg version="1.1" id="Layer_1" xmlns="http://www.w3.org/2000/svg" xmlns:xlink="http://www.w3.org/1999/xlink" x="0px" y="0px"
	 viewBox="0 0 3000 3000" style="enable-background:new 0 0 3000 3000;" xml:space="preserve">
<style type="text/css">
	.st0{clip-path:url(#SVGID_00000067202883778598704990000016376473566793549458_);}
	.st1{clip-path:url(#SVGID_00000163052430476179520950000017647614589348669832_);}
	.st2{clip-path:url(#SVGID_00000083090127934079967240000017290550472829566098_);}
	.st3{clip-path:url(#SVGID_00000058564243742310123460000016151155541666876072_);}
	.st4{fill:#006837;}
	.st5{fill:#009F69;}
	.st6{fill:#009A48;}
</style>
<g>
	<defs>
		<rect id="SVGID_1_" x="0.6" y="220.1" width="2999.4" height="2474.2"/>
	</defs>
	<clipPath id="SVGID_00000127035524570803742410000016686419290949077145_">
		<use xlink:href="#SVGID_1_"  style="overflow:visible;"/>
	</clipPath>
	<g transform="translate(-328 -708)" style="clip-path:url(#SVGID_00000127035524570803742410000016686419290949077145_);">
		<g>
			<defs>
				<polygon id="SVGID_00000156584247544200716600000005735386389629005706_" points="592.7,928.7 3324.9,1261.6 3064.1,3402 
					331.9,3069.1 				"/>
			</defs>
			<clipPath id="SVGID_00000085209233298095951710000000442111593487193272_">
				<use xlink:href="#SVGID_00000156584247544200716600000005735386389629005706_"  style="overflow:visible;"/>
			</clipPath>
			<g style="clip-path:url(#SVGID_00000085209233298095951710000000442111593487193272_);">
				<defs>
					<polygon id="SVGID_00000090263292629702745740000001470372940301036708_" points="592.7,928.7 3324.9,1261.6 3064.1,3402 
						331.9,3069.1 					"/>
				</defs>
				<clipPath id="SVGID_00000029034837686033303600000008511586145272759732_">
					<use xlink:href="#SVGID_00000090263292629702745740000001470372940301036708_"  style="overflow:visible;"/>
				</clipPath>
				<g style="clip-path:url(#SVGID_00000029034837686033303600000008511586145272759732_);">
					<defs>
						<polygon id="SVGID_00000072979147076463318820000004851570823872918921_" points="592.7,928.7 3324.9,1261.6 3064.1,3402 
							331.9,3069.1 						"/>
					</defs>
					<clipPath id="SVGID_00000152240055256811777430000006298270409526107038_">
						<use xlink:href="#SVGID_00000072979147076463318820000004851570823872918921_"  style="overflow:visible;"/>
					</clipPath>
					<g style="clip-path:url(#SVGID_00000152240055256811777430000006298270409526107038_);">
						<path class="st4" d="M1214.1,1471.2c240.4,29.7,503,133.8,739.4,293.2c551.7,371.9,823.6,944.3,606,1275.9
							c-116.1,177-355.1,257.2-655.5,220.1c-240.4-29.7-503.1-133.8-739.5-293.2c-551.7-371.9-823.5-944.3-606-1275.9
							C674.6,1514.3,913.5,1434.1,1214.1,1471.2L1214.1,1471.2 M1215,1464c-291.8-36-540.1,37-662.3,223.3
							c-220.1,335.4,52.2,911.2,608,1285.9c247.2,166.6,508.8,265.5,742.6,294.4c291.8,36,540.1-37,662.3-223.3
							c220.1-335.4-52.2-911.2-608-1285.9C1710.4,1591.8,1448.7,1492.9,1215,1464z"/>
						<path class="st4" d="M1283.1,1368.8c249.7,30.4,522.4,137.1,768,300.4c573,381,855.4,967.4,629.5,1307.2
							c-120.6,181.3-368.8,263.5-680.9,225.5c-249.7-30.4-522.5-137.1-768.1-300.4c-573-381-855.3-967.5-629.5-1307.2
							C722.7,1413,970.8,1330.8,1283.1,1368.8L1283.1,1368.8 M1284,1361.5c-303.1-36.9-561,37.9-687.8,228.7
							c-228.6,343.7,54.2,933.5,631.5,1317.4c256.7,170.7,528.5,272,771.3,301.6c303.1,36.9,561-37.9,687.8-228.7
							c228.6-343.7-54.2-933.5-631.5-1317.4C1798.5,1492.4,1526.8,1391.1,1284,1361.5z"/>
						<path class="st5" d="M1320.3,1306.6c249.7,30.4,522.4,137.1,768,300.4c573,381,855.4,967.4,629.5,1307.2
							c-120.6,181.3-368.8,263.5-680.9,225.5c-249.7-30.4-522.5-137.1-768.1-300.4c-573-381-855.3-967.5-629.5-1307.2
							C760,1350.8,1008.1,1268.6,1320.3,1306.6L1320.3,1306.6 M1321.2,1299.3c-303.1-36.9-561,37.9-687.8,228.7
							c-228.6,343.7,54.2,933.5,631.5,1317.4c256.7,170.7,528.5,272,771.3,301.6c303.1,36.9,561-37.9,687.8-228.7
							c228.6-343.7-54.2-933.5-631.5-1317.4C1835.7,1430.1,1564,1328.9,1321.2,1299.3z"/>
						<path class="st4" d="M1364,1252.6c249.7,30.4,522.4,137.1,768,300.4c573,381,855.4,967.4,629.5,1307.2
							c-120.6,181.3-368.8,263.5-680.9,225.5c-249.7-30.4-522.5-137.1-768.1-300.4c-573-381-855.3-967.5-629.5-1307.2
							C803.7,1296.7,1051.8,1214.6,1364,1252.6L1364,1252.6 M1364.9,1245.3c-303.1-36.9-561,37.9-687.8,228.7
							c-228.6,343.7,54.2,933.5,631.5,1317.4c256.7,170.7,528.5,272,771.3,301.6c303.1,36.9,561-37.9,687.8-228.7
							c228.6-343.7-54.2-933.5-631.5-1317.4C1879.4,1376.1,1607.7,1274.8,1364.9,1245.3z"/>
						<path class="st4" d="M1426.9,1223.2c249.7,30.4,522.4,137.1,768,300.4c573,381,855.4,967.4,629.5,1307.2
							c-120.6,181.3-368.8,263.5-680.9,225.5c-249.7-30.4-522.5-137.1-768.1-300.4c-573-381-855.3-967.5-629.5-1307.2
							C866.6,1267.3,1114.7,1185.2,1426.9,1223.2L1426.9,1223.2 M1427.8,1215.8c-303.1-36.9-561,37.9-687.8,228.7
							c-228.6,343.7,54.2,933.5,631.5,1317.4c256.7,170.7,528.5,272,771.3,301.6c303.1,36.9,561-37.9,687.8-228.7
							c228.6-343.7-54.2-933.5-631.5-1317.4C1942.3,1346.7,1670.6,1245.4,1427.8,1215.8z"/>
						<path class="st4" d="M1481.2,1228c241.9,29.8,506,134.1,743.8,293.9c554.9,372.8,828.4,946.6,609.6,1279.1
							c-116.8,177.4-357.1,257.9-659.4,220.7c-241.9-29.8-506-134.1-743.8-293.9C876.4,2354.9,603,1781,821.7,1448.7
							C938.5,1271.2,1178.8,1190.8,1481.2,1228L1481.2,1228 M1482,1220.8c-293.5-36.1-543.3,37-666.1,223.8
							c-221.4,336.3,52.5,913.4,611.5,1289c248.6,167.1,511.8,266.1,746.9,295.1c293.5,36.1,543.3-37,666.1-223.8
							c221.4-336.3-52.5-913.4-611.5-1289C1980.3,1348.9,1717.2,1249.8,1482,1220.8z"/>
						<path class="st4" d="M1569.2,1151.5c249.7,30.4,522.4,137.1,768,300.4c573,381,855.4,967.4,629.5,1307.2
							c-120.6,181.3-368.8,263.5-680.9,225.5c-249.7-30.4-522.5-137.1-768.1-300.4c-573-381-855.3-967.5-629.5-1307.2
							C1008.8,1195.6,1257,1113.4,1569.2,1151.5L1569.2,1151.5 M1570,1144.2c-303.1-36.9-561,37.9-687.8,228.7
							c-228.6,343.7,54.2,933.5,631.5,1317.4c256.7,170.7,528.5,272,771.3,301.6c303.1,36.9,561-37.9,687.8-228.7
							c228.6-343.7-54.2-933.5-631.5-1317.4C2084.6,1275,1812.8,1173.8,1570,1144.2z"/>
						<path class="st4" d="M1586,1156.7c237.1,29.8,496,134.5,729.1,294.6c544,373.7,812.1,948.8,597.6,1282.1
							c-114.5,177.9-350.1,258.5-646.4,221.2c-237.1-29.8-496.1-134.5-729.2-294.6c-544-373.7-812-948.9-597.6-1282.1
							C1054,1200,1289.6,1119.5,1586,1156.7L1586,1156.7 M1586.8,1149.5c-287.7-36.2-532.6,37.1-653,224.3
							c-217,337.1,51.4,915.6,599.5,1292.1c243.7,167.4,501.7,266.8,732.2,295.8c287.7,36.2,532.6-37.1,653-224.3
							c217-337.1-51.4-915.6-599.5-1292.1C2075.3,1277.9,1817.3,1178.5,1586.8,1149.5z"/>
						<path class="st6" d="M1607,1093.2c265,30.1,554.4,135.4,815,296.7c608,376.4,907.7,955.7,667.9,1291.3
							c-128,179.1-391.3,260.3-722.5,222.8c-265-30.1-554.5-135.4-815-296.7c-608-376.4-907.6-955.8-667.9-1291.3
							C1012.4,1136.8,1275.8,1055.6,1607,1093.2L1607,1093.2 M1607.9,1085.9c-321.5-36.5-595.3,37.4-729.9,226
							c-242.5,339.5,57.5,922.2,670.1,1301.4c272.4,168.7,560.8,268.7,818.4,297.9c321.6,36.5,595.3-37.4,729.9-226
							c242.5-339.5-57.5-922.2-670.1-1301.4C2153.9,1215.2,1865.5,1115.2,1607.9,1085.9z"/>
					</g>
				</g>
			</g>
		</g>
	</g>
</g>
</svg>
